<?xml version="1.0" encoding="UTF-8"?> <svg xmlns="http://www.w3.org/2000/svg" width="214" height="104" viewBox="0 0 214 104" fill="none"><g clip-path="url(#clip0_358_902)"><path d="M178.386 27.0211C169.72 27.0211 161.794 30.3726 155.665 35.9235V0H133.79V104H155.665V95.0977C161.794 100.649 169.72 104 178.386 104C198.042 104 214 86.719 214 65.4582C214 44.1974 198.042 26.9164 178.386 26.9164V27.0211ZM174.053 84.6244C163.908 84.6244 155.559 76.0363 155.559 65.3535C155.559 54.6707 163.802 46.0826 174.053 46.0826C184.304 46.0826 192.547 54.6707 192.547 65.3535C192.547 76.0363 184.304 84.6244 174.053 84.6244Z" fill="#111111"></path><mask id="mask0_358_902" style="mask-type:alpha" maskUnits="userSpaceOnUse" x="133" y="0" width="81" height="104"><path d="M178.386 27.0211C169.72 27.0211 161.794 30.3726 155.665 35.9235V0H133.79V104H155.665V95.0977C161.794 100.649 169.72 104 178.386 104C198.042 104 214 86.719 214 65.4582C214 44.1974 198.042 26.9164 178.386 26.9164V27.0211ZM174.053 84.6244C163.908 84.6244 155.559 76.0363 155.559 65.3535C155.559 54.6707 163.802 46.0826 174.053 46.0826C184.304 46.0826 192.547 54.6707 192.547 65.3535C192.547 76.0363 184.304 84.6244 174.053 84.6244Z" fill="white"></path></mask><g mask="url(#mask0_358_902)"><g filter="url(#filter0_d_358_902)"><path d="M126.603 72.6848C122.376 79.9114 114.027 84.8338 104.516 84.8338C99.2323 84.8338 93.9484 82.7392 90.1439 79.0735L129.562 63.2588L139.707 59.1742C139.179 56.5559 138.439 54.0423 137.488 51.5287C129.457 31.7341 107.158 21.994 87.819 29.7442C68.4797 37.4945 59.2857 59.8026 67.423 79.5972C72.2842 91.6415 83.1691 100.858 96.062 103.372C111.491 106.409 128.4 98.8681 136.96 86.0906C145.52 73.3132 139.919 81.1682 140.976 78.5498L126.498 72.7895L126.603 72.6848ZM95.1109 45.9778C102.72 42.9406 111.174 45.4542 116.564 51.6334L83.5918 64.8298C83.1691 56.6606 87.502 49.0151 95.0052 45.9778H95.1109Z" fill="#111111"></path></g></g><path d="M126.604 72.6848C122.377 79.9114 114.028 84.8338 104.517 84.8338C99.2328 84.8338 93.9489 82.7392 90.1444 79.0735L129.563 63.2588L139.708 59.1742C139.179 56.5559 138.44 54.0423 137.489 51.5287C129.457 31.7341 107.159 21.994 87.8195 29.7442C68.4802 37.4945 59.2862 59.8026 67.4234 79.5972C72.2847 91.6415 83.1696 100.858 96.0625 103.372C111.492 106.409 128.4 98.8681 136.96 86.0906C145.52 73.3132 139.919 81.1682 140.976 78.5498L126.498 72.7895L126.604 72.6848ZM95.1113 45.9778C102.72 42.9406 111.175 45.4542 116.564 51.6334L83.5923 64.8298C83.1696 56.6606 87.5025 49.0151 95.0057 45.9778H95.1113Z" fill="#111111"></path><path d="M54.2133 46.711C44.3852 41.5791 33.1832 39.3797 28.639 34.7714C26.8425 33.0957 25.68 31.001 25.68 28.6969C25.68 23.565 30.964 19.3756 37.4104 19.3756C43.8568 19.3756 38.2558 19.3756 38.6785 19.3756C38.8899 19.3756 39.1012 19.3756 39.3126 19.3756C39.524 19.3756 39.7353 19.3756 39.841 19.3756C40.158 19.3756 40.4751 19.4804 40.7921 19.5851C45.6533 20.7372 49.5635 24.1934 50.9373 28.6969L69.4311 21.2608C66.0494 9.21651 52.8395 0 37.0933 0C21.3472 0 3.59309 12.6727 3.59309 28.2779C3.59309 43.8832 7.60889 43.569 13.9496 48.8056C22.8267 56.2417 33.7116 57.9174 42.483 62.5257C46.4988 64.5156 49.1407 68.0765 49.1407 72.0564C49.1407 78.3404 42.483 83.4723 34.3457 83.4723C26.2084 83.4723 20.7131 78.1309 18.9165 70.7996L0 78.4451C2.85333 93.003 17.8598 104.105 36.0365 104.105C54.2133 104.105 72.6015 90.3847 72.6015 73.4179C72.6015 56.4512 65.2039 52.0524 54.319 46.8157L54.2133 46.711Z" fill="#111111"></path><mask id="mask1_358_902" style="mask-type:alpha" maskUnits="userSpaceOnUse" x="64" y="27" width="78" height="78"><path d="M126.603 72.6848C122.376 79.9114 114.027 84.8338 104.516 84.8338C99.2323 84.8338 93.9484 82.7392 90.1439 79.0735L129.562 63.2588L139.707 59.1742C139.179 56.5559 138.439 54.0423 137.488 51.5287C129.457 31.7341 107.158 21.994 87.819 29.7442C68.4797 37.4945 59.2857 59.8026 67.423 79.5972C72.2842 91.6415 83.1691 100.858 96.062 103.372C111.491 106.409 128.4 98.8681 136.96 86.0906C145.52 73.3132 139.919 81.1682 140.976 78.5498L126.498 72.7895L126.603 72.6848ZM95.1109 45.9778C102.72 42.9406 111.174 45.4542 116.564 51.6334L83.5918 64.8298C83.1691 56.6606 87.502 49.0151 95.0052 45.9778H95.1109Z" fill="white"></path></mask><g mask="url(#mask1_358_902)"><g filter="url(#filter1_d_358_902)"><path d="M54.2133 46.711C44.3852 41.5791 33.1832 39.3797 28.639 34.7714C26.8425 33.0957 25.68 31.001 25.68 28.6969C25.68 23.565 30.964 19.3756 37.4104 19.3756C43.8568 19.3756 38.2558 19.3756 38.6785 19.3756C38.8899 19.3756 39.1012 19.3756 39.3126 19.3756C39.524 19.3756 39.7353 19.3756 39.841 19.3756C40.158 19.3756 40.4751 19.4804 40.7921 19.5851C45.6533 20.7372 49.5635 24.1934 50.9373 28.6969L69.4311 21.2608C66.0494 9.21651 52.8395 0 37.0933 0C21.3472 0 3.59309 12.6727 3.59309 28.2779C3.59309 43.8832 7.60889 43.569 13.9496 48.8056C22.8267 56.2417 33.7116 57.9174 42.483 62.5257C46.4988 64.5156 49.1407 68.0765 49.1407 72.0564C49.1407 78.3404 42.483 83.4723 34.3457 83.4723C26.2084 83.4723 20.7131 78.1309 18.9165 70.7996L0 78.4451C2.85333 93.003 17.8598 104.105 36.0365 104.105C54.2133 104.105 72.6015 90.3847 72.6015 73.4179C72.6015 56.4512 65.2039 52.0524 54.319 46.8157L54.2133 46.711Z" fill="#111111"></path></g></g></g><defs><filter id="filter0_d_358_902" x="64.457" y="22.0813" width="97.353" height="96.9611" filterUnits="userSpaceOnUse" color-interpolation-filters="sRGB"><feFlood flood-opacity="0" result="BackgroundImageFix"></feFlood><feColorMatrix in="SourceAlpha" type="matrix" values="0 0 0 0 0 0 0 0 0 0 0 0 0 0 0 0 0 0 127 0" result="hardAlpha"></feColorMatrix><feOffset dx="10" dy="5"></feOffset><feGaussianBlur stdDeviation="5"></feGaussianBlur><feComposite in2="hardAlpha" operator="out"></feComposite><feColorMatrix type="matrix" values="0 0 0 0 0 0 0 0 0 0 0 0 0 0 0 0 0 0 0.1 0"></feColorMatrix><feBlend mode="normal" in2="BackgroundImageFix" result="effect1_dropShadow_358_902"></feBlend><feBlend mode="normal" in="SourceGraphic" in2="effect1_dropShadow_358_902" result="shape"></feBlend></filter><filter id="filter1_d_358_902" x="0" y="-5" width="92.6016" height="124.105" filterUnits="userSpaceOnUse" color-interpolation-filters="sRGB"><feFlood flood-opacity="0" result="BackgroundImageFix"></feFlood><feColorMatrix in="SourceAlpha" type="matrix" values="0 0 0 0 0 0 0 0 0 0 0 0 0 0 0 0 0 0 127 0" result="hardAlpha"></feColorMatrix><feOffset dx="10" dy="5"></feOffset><feGaussianBlur stdDeviation="5"></feGaussianBlur><feComposite in2="hardAlpha" operator="out"></feComposite><feColorMatrix type="matrix" values="0 0 0 0 0 0 0 0 0 0 0 0 0 0 0 0 0 0 0.1 0"></feColorMatrix><feBlend mode="normal" in2="BackgroundImageFix" result="effect1_dropShadow_358_902"></feBlend><feBlend mode="normal" in="SourceGraphic" in2="effect1_dropShadow_358_902" result="shape"></feBlend></filter><clipPath id="clip0_358_902"><rect width="214" height="104" fill="white"></rect></clipPath></defs></svg> 